# ProBuilder 5.2.2
# https://unity3d.com/unity/features/worldbuilding/probuilder
# 6/14/2024 11:01:37 AM

mtllib ./Wire_Frame.mtl
o Wire_Frame

g Cube
v 71 -0.5 71
v -71 -0.5 71
v 71 0.5 71
v -71 0.5 71
v -71 -0.5 -71
v -71 0.5 -71
v 71 -0.5 -71
v 71 0.5 -71
v 69.15 -1.724747 -74.95
v 69.15002 -1.724747 74.14217
v 71.21675 -0.4747467 -74.95
v 71.21677 -0.4747467 74.14217
v 71.21675 2.025253 -74.95
v 71.21677 2.025253 74.14217
v 69.15 3.275253 -74.95
v 69.15002 3.275253 74.14217
v 67.08325 2.025253 -74.95
v 67.08327 2.025253 74.14217
v 67.08325 -0.4747467 -74.95
v 67.08327 -0.4747467 74.14217
v 69.15 0.7752533 -74.95
v 69.15002 0.7752533 74.14217
v 69.42674 -1.724747 -72.70196
v -73.7618 -1.724762 -72.70196
v 69.42674 -0.4747467 -70.53878
v -73.7618 -0.474762 -70.53878
v 69.42674 2.025253 -70.53878
v -73.7618 2.025238 -70.53878
v 69.42674 3.275253 -72.70196
v -73.7618 3.275238 -72.70196
v 69.42674 2.025253 -74.86514
v -73.7618 2.025238 -74.86514
v 69.42674 -0.4747467 -74.86514
v -73.7618 -0.474762 -74.86514
v 69.42674 0.7752533 -72.70196
v -73.7618 0.775238 -72.70196
v 69.42675 -1.724747 72.23691
v -73.76178 -1.724762 72.23691
v 69.42675 -0.4747467 74.40009
v -73.76178 -0.474762 74.40009
v 69.42675 2.025253 74.40009
v -73.76178 2.025238 74.40009
v 69.42675 3.275253 72.23691
v -73.76178 3.275238 72.23691
v 69.42675 2.025253 70.07373
v -73.76178 2.025238 70.07373
v 69.42675 -0.4747467 70.07373
v -73.76178 -0.474762 70.07373
v 69.42675 0.7752533 72.23691
v -73.76178 0.775238 72.23691
v -71.61398 -1.724762 -74.95001
v -71.61398 -1.724762 74.37838
v -69.54724 -0.474762 -74.95001
v -69.54724 -0.474762 74.37838
v -69.54724 2.025238 -74.95001
v -69.54724 2.025238 74.37838
v -71.61398 3.275238 -74.95001
v -71.61398 3.275238 74.37838
v -73.68074 2.025238 -74.95
v -73.68076 2.025238 74.37838
v -73.68074 -0.474762 -74.95
v -73.68076 -0.474762 74.37838
v -71.61398 0.775238 -74.95001
v -71.61398 0.775238 74.37838

vt 71 -0.5
vt -71 -0.5
vt 71 0.5
vt -71 0.5
vt -71 71
vt 71 71
vt -71 -71
vt 71 -71
vt -1.250027 -74.99999
vt -1.249992 74.22239
vt 1.249985 -74.99999
vt 1.250023 74.22239
vt -1.250007 -75
vt -1.25 74.22238
vt 1.25 -75
vt -1.249985 -74.99999
vt 1.250004 -74.99999
vt 1.249992 74.22239
vt -2.521767 0.01316154
vt -0.02280426 -0.03770781
vt -1.227715 2.177329
vt 2.5 -1.072884E-06
vt 0 -1.072884E-06
vt 1.25 2.165061
vt -1.271767 2.151895
vt 0.02228546 -0.01227307
vt 1.227196 2.202763
vt 2.521767 -0.01316142
vt 0.02280426 0.03770781
vt 1.227715 -2.177329
vt -2.5 -1.430511E-06
vt -1.25 -2.165056
vt 1.271767 -2.151895
vt -0.02228546 0.01227307
vt -1.227196 -2.202764
vt -1.25 75
vt 1.25 -75
vt 1.250007 75
vt -1.249995 75
vt -0.0004119873 -0.0007098913
vt -1.249588 2.165306
vt -1.250412 2.164833
vt 1.249588 2.165779
vt 0.0004119873 0.0006964207
vt 1.249588 -2.165302
vt 1.250404 -2.164831
vt -1.249588 -2.165773
vt -1.249997 -75
vt 1.249997 75
vt -1.25 74.99999
vt 1.250007 74.99999
vt -1.250011 74.4588
vt 1.250034 74.4588
vt -1.25 74.45884

vn 0 0 1
vn -1 0 0
vn 0 0 -1
vn 1 0 0
vn 0 1 0
vn 0 -1 0
vn -2.490849E-07 -0.650146 -0.7598093
vn -5.20814E-07 -0.6501459 0.7598094
vn 0.5721389 -0.3226064 -0.7540438
vn 0.572139 -0.3226064 0.7540438
vn 0.5721389 0.3226064 -0.7540438
vn 0.572139 0.3226064 0.7540438
vn 0 0.6501461 -0.7598093
vn -2.490849E-07 0.650146 0.7598093
vn -0.5721392 0.3226062 -0.7540438
vn -0.5721393 0.322606 0.7540437
vn -0.572139 -0.3226064 -0.7540438
vn -0.5721391 -0.3226062 0.7540438
vn 0.7559996 -0.6545721 0
vn -0.7559995 -0.6545721 0
vn 0.7558936 -0.3272402 0.5670437
vn -0.7558936 -0.3272402 0.5670438
vn 0.7558936 0.3272402 0.5670438
vn -0.7558936 0.3272402 0.5670437
vn 0.7559995 0.6545721 0
vn -0.7559996 0.6545721 0
vn 0.7558936 0.3272402 -0.5670438
vn -0.7558936 0.3272402 -0.5670437
vn 0.7558936 -0.3272402 -0.5670437
vn -0.7558936 -0.3272402 -0.5670438

usemtl Trigger
f 3/3/1 4/4/1 2/2/1 1/1/1
f 4/3/2 6/4/2 5/2/2 2/1/2
f 6/3/3 8/4/3 7/2/3 5/1/3
f 8/3/4 3/4/4 1/2/4 7/1/4
f 8/7/5 6/8/5 4/6/5 3/5/5
f 1/6/6 2/5/6 5/7/6 7/8/6

usemtl ProBuilderDefault
f 9/19/7 21/20/3 11/21/9
f 11/25/9 21/26/3 13/27/11
f 13/24/11 21/23/3 15/22/13
f 15/28/13 21/29/3 17/30/15
f 17/33/15 21/34/3 19/35/17
f 19/32/17 21/23/3 9/31/7
f 12/24/10 22/23/1 10/22/8
f 14/25/12 22/26/1 12/27/10
f 16/19/14 22/20/1 14/21/12
f 18/32/16 22/23/1 16/31/14
f 20/33/18 22/34/1 18/35/16
f 10/28/8 22/29/1 20/30/18
f 23/31/19 35/40/4 25/41/21
f 25/42/21 35/23/4 27/43/23
f 27/24/23 35/23/4 29/22/25
f 29/22/25 35/44/4 31/45/27
f 31/46/27 35/23/4 33/47/29
f 33/32/29 35/23/4 23/31/19
f 26/24/22 36/23/2 24/22/20
f 28/42/24 36/23/2 26/43/22
f 30/31/26 36/40/2 28/41/24
f 32/32/28 36/23/2 30/31/26
f 34/46/30 36/23/2 32/47/28
f 24/22/20 36/44/2 34/45/30
f 37/31/19 49/40/4 39/41/21
f 39/42/21 49/23/4 41/43/23
f 41/24/23 49/23/4 43/22/25
f 43/22/25 49/44/4 45/45/27
f 45/46/27 49/23/4 47/47/29
f 47/32/29 49/23/4 37/31/19
f 40/24/22 50/23/2 38/22/20
f 42/42/24 50/23/2 40/43/22
f 44/31/26 50/40/2 42/41/24
f 46/32/28 50/23/2 44/31/26
f 48/46/30 50/23/2 46/47/28
f 38/22/20 50/44/2 48/45/30
f 51/19/7 63/20/3 53/21/9
f 53/25/9 63/26/3 55/27/11
f 55/24/11 63/23/3 57/22/13
f 57/28/13 63/29/3 59/30/15
f 59/33/15 63/34/3 61/35/17
f 61/32/17 63/23/3 51/31/7
f 54/24/10 64/23/1 52/22/8
f 56/25/12 64/26/1 54/27/10
f 58/19/14 64/20/1 56/21/12
f 60/32/16 64/23/1 58/31/14
f 62/33/18 64/34/1 60/35/16
f 52/28/8 64/29/1 62/30/18
f 12/12/10 10/10/8 9/9/7
f 9/9/7 11/11/9 12/12/10
f 14/12/12 12/14/10 11/13/9
f 11/13/9 13/15/11 14/12/12
f 16/18/14 14/14/12 13/16/11
f 13/16/11 15/17/13 16/18/14
f 18/18/16 16/14/14 15/16/13
f 15/16/13 17/17/15 18/18/16
f 20/12/18 18/10/16 17/13/15
f 17/13/15 19/15/17 20/12/18
f 10/12/8 20/10/18 19/9/17
f 19/9/17 9/11/7 10/12/8
f 26/38/22 24/36/20 23/13/19
f 23/13/19 25/37/21 26/38/22
f 28/38/24 26/36/22 25/13/21
f 25/13/21 27/37/23 28/38/24
f 30/38/26 28/39/24 27/16/23
f 27/16/23 29/11/25 30/38/26
f 32/38/28 30/39/26 29/13/25
f 29/13/25 31/15/27 32/38/28
f 34/38/30 32/39/28 31/13/27
f 31/13/27 33/15/29 34/38/30
f 24/38/20 34/36/30 33/13/29
f 33/13/29 23/37/19 24/38/20
f 40/38/22 38/39/20 37/9/19
f 37/9/19 39/17/21 40/38/22
f 42/38/24 40/36/22 39/9/21
f 39/9/21 41/11/23 42/38/24
f 44/38/26 42/39/24 41/9/23
f 41/9/23 43/11/25 44/38/26
f 46/49/28 44/39/26 43/48/25
f 43/48/25 45/15/27 46/49/28
f 48/38/30 46/39/28 45/9/27
f 45/9/27 47/11/29 48/38/30
f 38/51/20 48/50/30 47/13/29
f 47/13/29 37/37/19 38/51/20
f 54/53/10 52/52/8 51/9/7
f 51/9/7 53/17/9 54/53/10
f 56/53/12 54/52/10 53/9/9
f 53/9/9 55/17/11 56/53/12
f 58/53/14 56/52/12 55/9/11
f 55/9/11 57/17/13 58/53/14
f 60/53/16 58/52/14 57/9/13
f 57/9/13 59/17/15 60/53/16
f 62/53/18 60/54/16 59/9/15
f 59/9/15 61/11/17 62/53/18
f 52/53/8 62/52/18 61/9/17
f 61/9/17 51/17/7 52/53/8

